#N canvas 494 209 1199 625 12;
#X declare -path dep;
#X obj 192 343 adc~;
#X obj 298 143 hsl 128 17 -15 15 0 0 empty empty empty -2 -8 0 10 #181818 #fcfcfc #fcfcfc 0 1;
#X msg 298 168 highvol \$1, f 11;
#X obj 458 277 hsl 128 17 -15 15 0 0 empty empty empty -2 -8 0 10 #181818 #fcfcfc #fcfcfc 0 1;
#X msg 458 302 midvol \$1, f 11;
#X obj 456 464 hsl 128 17 -15 15 0 0 empty empty empty -2 -8 0 10 #181818 #fcfcfc #fcfcfc 0 1;
#X msg 456 489 lowvol \$1, f 11;
#X msg 701 314 midfreq \$1, f 12;
#X msg 812 370 midq \$1, f 9;
#X obj 298 110 r High @hv_param -15 15 0 db;
#X obj 458 246 r Mid @hv_param -15 15 0 db;
#X obj 456 432 r Low @hv_param -15 15 0 db;
#X obj 701 273 hsl 128 17 313.3 5705.6 1 0 empty empty empty -2 -8 0 10 #000000 #fcfcfc #585858 0 1;
#N canvas 523 290 995 434 stereo_eq_pass 1;
#X obj 292 123 inlet~;
#X obj 433 123 inlet~;
#X obj 649 130 inlet;
#X obj 292 190 wstd.cmpnnts/eq_pass, f 23;
#X obj 653 195 wstd.cmpnnts/eq_pass, f 23;
#X obj 256 321 outlet~;
#X obj 559 326 outlet~;
#X obj 339 321 outlet~;
#X obj 721 332 outlet~;
#X obj 458 326 outlet~;
#X obj 818 332 outlet~;
#X connect 0 0 3 0 empty;
#X connect 1 0 4 0 empty;
#X connect 2 0 3 1 empty;
#X connect 2 0 4 1 empty;
#X connect 3 0 5 0 empty;
#X connect 3 1 9 0 empty;
#X connect 3 2 8 0 empty;
#X connect 4 0 7 0 empty;
#X connect 4 1 6 0 empty;
#X connect 4 2 10 0 empty;
#X restore 199 699 pd stereo_eq_pass;
#X obj 686 141 loadbang;
#X msg 734 179 1337, f 7;
#X msg 686 179 0, f 5;
#X obj 812 314 wstd.cmpnnts/eqmidq;
#X obj 812 342 wstd.cmpnnts/qcalc;
#X obj 701 242 r Mid_Freq @hv_param 313.3 5705.6 1337 log_hz;
#X obj 179 1499 dac~ 1 2;
#X obj 729 683 hsl 128 15 -1 1 0 0 empty empty empty -2 8 0 10 #fcfcfc #000000 #000000 0 1;
#X obj 759 783 hsl 128 15 0 20 0 0 empty empty empty -2 8 0 10 #fcfcfc #000000 #000000 0 1;
#X obj 776 912 hsl 128 15 0 1 0 0 empty empty empty -2 8 0 10 #fcfcfc #000000 #000000 0 1;
#X obj 696 553 hsl 128 15 0 1 0 0 empty empty empty -2 8 0 10 #fcfcfc #000000 #000000 0 1;
#X msg 694 580 mix \$1, f 8;
#X msg 726 711 feedback \$1, f 12;
#X msg 756 805 speed \$1, f 10;
#X msg 773 934 intensity \$1;
#X text 819 703 // -1..1, f 6;
#X text 818 805 // 0..20 Hz, f 10;
#X text 858 936 // 0..1, f 6;
#X text 763 579 // 0..1 (0=dry), f 12;
#X obj 694 520 / 100;
#X obj 727 652 / 100;
#X obj 776 877 / 100;
#X obj 1132 895 hsl 128 15 -1 1 0 0 empty empty empty -2 8 0 10 #fcfcfc #000000 #000000 0 1;
#X obj 1162 995 hsl 128 15 0 20 0 0 empty empty empty -2 8 0 10 #fcfcfc #000000 #000000 0 1;
#X obj 1179 1124 hsl 128 15 0 1 0 0 empty empty empty -2 8 0 10 #fcfcfc #000000 #000000 0 1;
#X obj 1099 765 hsl 128 15 0 1 0 0 empty empty empty -2 8 0 10 #fcfcfc #000000 #000000 0 1;
#X msg 1097 792 mix \$1, f 8;
#X msg 1129 923 feedback \$1, f 12;
#X msg 1159 1017 speed \$1, f 10;
#X msg 1176 1146 intensity \$1;
#X text 1222 915 // -1..1, f 6;
#X text 1221 1017 // 0..20 Hz, f 10;
#X text 1261 1148 // 0..1, f 6;
#X text 1166 791 // 0..1 (0=dry), f 12;
#X obj 1097 732 / 100;
#X obj 1130 864 / 100;
#X obj 1179 1089 / 100;
#X obj 1554 1095 hsl 128 15 -1 1 0 0 empty empty empty -2 8 0 10 #fcfcfc #000000 #000000 0 1;
#X obj 1584 1195 hsl 128 15 0 20 0 0 empty empty empty -2 8 0 10 #fcfcfc #000000 #000000 0 1;
#X obj 1601 1324 hsl 128 15 0 1 0 0 empty empty empty -2 8 0 10 #fcfcfc #000000 #000000 0 1;
#X obj 1521 965 hsl 128 15 0 1 0 0 empty empty empty -2 8 0 10 #fcfcfc #000000 #000000 0 1;
#X msg 1519 992 mix \$1, f 8;
#X msg 1551 1123 feedback \$1, f 12;
#X msg 1581 1217 speed \$1, f 10;
#X msg 1598 1346 intensity \$1;
#X text 1644 1115 // -1..1, f 6;
#X text 1643 1217 // 0..20 Hz, f 10;
#X text 1683 1348 // 0..1, f 6;
#X text 1588 991 // 0..1 (0=dry), f 12;
#X obj 1519 932 / 100;
#X obj 1552 1064 / 100;
#X obj 1601 1289 / 100;
#X obj 694 487 r High_Mix @hv_param 0 100 50;
#X obj 727 622 r High_Feedback @hv_param -100 100 0, f 37;
#X obj 759 749 r High_Speed @hv_param 0 20 2;
#X obj 774 847 r High_Intensity @hv_param 0 100 20, f 33;
#X obj 1097 699 r Mid_Mix @hv_param 0 100 50;
#X obj 1130 834 r Mid_Feedback @hv_param -100 100 0, f 37;
#X obj 1159 959 r Mid_Speed @hv_param 0 20 2;
#X obj 1177 1059 r Mid_Intensity @hv_param 0 100 20, f 33;
#X obj 1519 899 r Low_Mix @hv_param 0 100 50;
#X obj 1552 1034 r Low_Feedback @hv_param -100 100 0, f 37;
#X obj 1584 1161 r Low_Speed @hv_param 0 20 2;
#X obj 1599 1259 r Low_Intensity @hv_param 0 100 20, f 33;
#X obj 199 939 hv.flanger2~ 20;
#X obj 719 1139 hv.flanger2~ 20;
#X obj 1219 1339 hv.flanger2~ 20;
#X obj 179 1399 catch~ L;
#X obj 259 1399 catch~ R;
#X obj 199 999 throw~ L;
#X obj 279 999 throw~ R;
#X obj 719 1199 throw~ L;
#X obj 799 1199 throw~ R;
#X obj 1219 1399 throw~ L;
#X obj 1299 1399 throw~ R;
#X obj 1079 110 declare -path dep;
#X connect 0 0 13 0 empty;
#X connect 0 1 13 1 empty;
#X connect 1 0 2 0 empty;
#X connect 2 0 13 2 empty;
#X connect 3 0 4 0 empty;
#X connect 4 0 13 2 empty;
#X connect 5 0 6 0 empty;
#X connect 6 0 13 2 empty;
#X connect 7 0 13 2 empty;
#X connect 8 0 13 2 empty;
#X connect 9 0 1 0 empty;
#X connect 10 0 3 0 empty;
#X connect 11 0 5 0 empty;
#X connect 12 0 7 0 empty;
#X connect 12 0 17 0 empty;
#X connect 13 0 78 0 empty;
#X connect 13 1 78 1 empty;
#X connect 13 2 79 0 empty;
#X connect 13 3 79 1 empty;
#X connect 13 4 80 0 empty;
#X connect 13 5 80 1 empty;
#X connect 14 0 16 0 empty;
#X connect 14 0 15 0 empty;
#X connect 15 0 12 0 empty;
#X connect 16 0 1 0 empty;
#X connect 16 0 3 0 empty;
#X connect 16 0 5 0 empty;
#X connect 17 0 18 0 empty;
#X connect 18 0 8 0 empty;
#X connect 19 0 12 0 empty;
#X connect 21 0 26 0 empty;
#X connect 22 0 27 0 empty;
#X connect 23 0 28 0 empty;
#X connect 24 0 25 0 empty;
#X connect 25 0 78 2 empty;
#X connect 26 0 78 2 empty;
#X connect 27 0 78 2 empty;
#X connect 28 0 78 2 empty;
#X connect 33 0 24 0 empty;
#X connect 34 0 21 0 empty;
#X connect 35 0 23 0 empty;
#X connect 36 0 41 0 empty;
#X connect 37 0 42 0 empty;
#X connect 38 0 43 0 empty;
#X connect 39 0 40 0 empty;
#X connect 40 0 79 2 empty;
#X connect 41 0 79 2 empty;
#X connect 42 0 79 2 empty;
#X connect 43 0 79 2 empty;
#X connect 48 0 39 0 empty;
#X connect 49 0 36 0 empty;
#X connect 50 0 38 0 empty;
#X connect 51 0 56 0 empty;
#X connect 52 0 57 0 empty;
#X connect 53 0 58 0 empty;
#X connect 54 0 55 0 empty;
#X connect 55 0 80 2 empty;
#X connect 56 0 80 2 empty;
#X connect 57 0 80 2 empty;
#X connect 58 0 80 2 empty;
#X connect 63 0 54 0 empty;
#X connect 64 0 51 0 empty;
#X connect 65 0 53 0 empty;
#X connect 66 0 33 0 empty;
#X connect 67 0 34 0 empty;
#X connect 68 0 22 0 empty;
#X connect 69 0 35 0 empty;
#X connect 70 0 48 0 empty;
#X connect 71 0 49 0 empty;
#X connect 72 0 37 0 empty;
#X connect 73 0 50 0 empty;
#X connect 74 0 63 0 empty;
#X connect 75 0 64 0 empty;
#X connect 76 0 52 0 empty;
#X connect 77 0 65 0 empty;
#X connect 78 0 83 0 empty;
#X connect 78 1 84 0 empty;
#X connect 79 0 85 0 empty;
#X connect 79 1 86 0 empty;
#X connect 80 0 87 0 empty;
#X connect 80 1 88 0 empty;
#X connect 81 0 20 0 empty;
#X connect 82 0 20 1 empty;
